<svg width="20" height="20" viewBox="0 0 20 20" fill="black" xmlns="http://www.w3.org/2000/svg">
<path d="M16.1252 19.9974C15.1574 19.9974 14.1331 19.7591 13.0731 19.5113C11.9835 19.2574 10.8652 18.9939 9.75829 18.9939C8.65047 18.9939 7.56264 19.2635 6.51047 19.5243C4.34786 20.0617 2.30699 20.5704 0.560901 18.4296L0.434814 18.247L0.467858 18.0383C0.955684 14.7887 2.61916 12.1739 5.1496 10.68L5.46786 10.4922L5.72525 10.7643C6.26934 11.3557 6.92993 11.8281 7.66547 12.1518C8.401 12.4755 9.19556 12.6435 9.99916 12.6452C11.6157 12.6452 13.1609 11.9652 14.2722 10.7643L14.5252 10.4922L14.8479 10.68C17.3809 12.1783 19.0444 14.7913 19.5322 18.0374L19.5652 18.2609L19.4279 18.4296C19.0427 18.9358 18.5418 19.3423 17.9672 19.6151C17.3926 19.8879 16.761 20.019 16.1252 19.9974ZM9.76873 18.5591C10.9244 18.5591 12.0705 18.827 13.1783 19.0878C15.5018 19.6313 17.5096 20.1017 19.0992 18.1513L19.1139 18.1339V18.113C18.6453 14.9913 17.0566 12.4948 14.6392 11.0652L14.6079 11.0478L14.5844 11.0739C14.0004 11.7051 13.2924 12.2092 12.5049 12.5545C11.7173 12.8998 10.8669 13.079 10.007 13.0809C9.14695 13.0792 8.29649 12.9002 7.50875 12.555C6.72102 12.2099 6.01293 11.706 5.42873 11.0748L5.40264 11.0478L5.37221 11.0652C2.94177 12.4948 1.35221 14.9957 0.885249 18.113V18.1357L0.900901 18.153C2.47308 20.0817 4.30177 19.627 6.4209 19.1009C7.48699 18.8357 8.59481 18.5591 9.76873 18.5591ZM9.99742 11.8078C6.8096 11.8078 4.22525 9.16435 4.22525 5.90348C4.22525 2.64261 6.8096 0 9.99742 0C13.1861 0 15.7705 2.64348 15.7705 5.90435C15.7661 9.16348 13.1844 11.8043 9.99742 11.8087V11.8078ZM9.99742 0.437391C7.83481 0.437391 5.88438 1.76957 5.05829 3.81391C4.2296 5.85739 4.68786 8.21043 6.21742 9.77391C6.95599 10.5362 7.90783 11.0572 8.94793 11.2686C9.98804 11.4799 11.0677 11.3718 12.0452 10.9583C14.0435 10.1113 15.3461 8.11652 15.3452 5.90435C15.3426 2.88435 12.9505 0.436522 9.99742 0.432174V0.437391Z" fill="black"/>
</svg>
